<svg xmlns="http://www.w3.org/2000/svg" viewBox="0 0 283.79 373.04"><defs><style>.cls-1{fill:none;}.cls-2{fill:#fff;}</style></defs><g id="Calque_2" data-name="Calque 2"><g id="Calque_3" data-name="Calque 3"><path class="cls-1" d="M203.32,336.6s-35.46,10.74-59.36-5.89c-.78-.37-1.46-.72-2.07-1.06-.6.34-1.28.69-2.06,1.06-23.9,16.63-59.37,5.89-59.37,5.89-9.82,6.81-5.18,19.06-5.18,19.06H208.51S213.15,343.41,203.32,336.6Z"/><path class="cls-1" d="M160.51,185.2c.25-6.64,3.58-9.41,23.81-32.5,26.71-30.5,29.89-35.92,31-42.71,1.31-8.06.27-21.69-16.31-40.83-2.88-2.54-9.4-7.74-16.46-9.39-13.28.74-24.49,1.54-27.71,1.77l-4,18.07L149,90.34H130.67l-1.84-10.73-4-18.07c-2.47-.18-9.65-.69-18.87-1.25h0C94.66,59.57,82.74,71.6,82.74,71.6,68.12,89.46,67.23,102.28,68.48,110c1.1,6.79,4.27,12.21,31,42.71,20.23,23.09,23.56,25.86,23.81,32.5.5,13.06-11.84,16.73-30.24,41.2-12.52,16.66-26.46,35.21-24.94,56.69.85,12,6.3,21.89,10,28.42,10.8,14.46,47.12,6.35,47.12,6.35l9.07-24.29h15.3l9.08,24.29s36.32,8.11,47.12-6.35c3.64-6.53,9.1-16.42,9.95-28.42,1.51-21.48-12.43-40-24.95-56.69C172.35,201.93,160,198.26,160.51,185.2Zm-58-42.33a37.48,37.48,0,0,1,6.05-4.53c5.72-3.45,9.17-3.4,14-5.3,9.21-3.61,8.94-8.62,15.49-11,4.21-1.5,10.93-1.79,21.54,4.54.49-.38,10.43-7.8,21.17-3.4a20.7,20.7,0,0,1,10.2,9.45c-5.72,7.7-10.83,13.94-14.74,18.52a272.82,272.82,0,0,1-20,20.78c-11,10.37-14.24,11.74-17.38,11.34-5.1-.64-8.06-5.65-11.34-10.58A186.7,186.7,0,0,0,102.49,142.87Zm99.78,121.7c1.44,3.18,7.84,17.35.76,31.37-1.11,2.2-6.56,13-18.9,15.88a28.25,28.25,0,0,1-18.52-2.27l-.45-1.13-1.13.48-11-30-23.44-.27-10.88,29.75c-.42.3-.85.57-1.28.85l-.31.77-.21-.42c-10,6.2-22,6.27-29.95.32-9.34-6.95-9.43-19.25-9.45-21.55,0-1.86-.09-12.3,7.18-19.65,5.87-5.94,12.61-5.89,28.72-8.32,7.89-1.18,19.18-3.14,32.89-6.42,9.34-9.59,22.57-13.66,34.39-10.21C194.73,247.88,200.54,260.74,202.27,264.57Z"/><path class="cls-1" d="M144,323.15l-2.07-6.41-2.06,6.41a20.64,20.64,0,0,1,2.06.33A20.57,20.57,0,0,1,144,323.15Z"/><path class="cls-2" d="M64,30.24H212.48C212.48,15.73,235.55.48,236.27,0H40.13l.08,0C41.69,1,64,16,64,30.24Z"/><path class="cls-2" d="M26.53,287.36c-3.7,4-2.62,12.18,2.26,14.36,4.11,1.84,10.38-.8,11.72-6.05a8.92,8.92,0,0,0-6-10.58A8.17,8.17,0,0,0,26.53,287.36Z"/><path class="cls-2" d="M255,301.72c4.89-2.18,6-10.36,2.27-14.36a8.18,8.18,0,0,0-7.94-2.27,8.92,8.92,0,0,0-6,10.58C244.62,300.92,250.88,303.56,255,301.72Z"/><path class="cls-2" d="M264.06,269.11c-8.08-.75-16.35,4.29-21.54,12.47,7.32-5,16.69-4,21.54,1.51,5.91,6.68,2.23,16.63-1.51,21.54-7.67,10.08-22.09,7.45-23.43,7.19a27.31,27.31,0,0,1-15.7-9.76c8.21-13.77,11.34-32.62,5.87-49.58C222,230,199.74,211,190.36,203c-8.22-7-13.83-10.4-14.36-17-.82-10.25,11.65-15.28,26.84-31.37,11.66-12.35,27.25-28.88,27.59-50.27.37-23.93-18.55-41.07-20.41-42.71-1.21-1.06-2.42-2-3.63-2.93,12.66-.42,24.18-.49,29.9.29,16.63,2.26,23.43,14.74,19.65,22.29s-22.3,7.56-22.3,7.56c6.05,6.43,18.52,13.23,31.25,4.16s9.19-24.94,6.5-30.61c-2.56-5.37-11.78-17.19-52-18.41l.45-.11H59.79c-10.14-.87-25.27-.37-39.65,7.76-8.52,4.81-11,9-11.88,10.76C5.57,68,2,83.91,14.76,93a22.54,22.54,0,0,0,11,4.3c7.34.7,12.88-2.72,15-4.08A26.24,26.24,0,0,0,46,88.82c-1.68,0-18.79-.54-22.3-7.56-3.78-7.55,3-20,19.65-22.29,6.31-.86,19.68-.69,33.84-.15-1.14.86-2.29,1.79-3.43,2.79C71.91,63.25,53,80.39,53.36,104.32c.33,21.39,15.93,37.92,27.59,50.27,15.19,16.09,27.65,21.12,26.84,31.37-.53,6.61-6.15,10-14.37,17-9.37,8-31.68,27-38.93,49.51-5.46,17-2.34,35.81,5.88,49.58a27.35,27.35,0,0,1-15.7,9.76c-1.34.26-15.76,2.89-23.44-7.19-3.74-4.91-7.42-14.86-1.51-21.54,4.85-5.48,14.22-6.54,21.55-1.51-5.19-8.18-13.47-13.22-21.55-12.47C6.92,270.29-.82,285.59.07,296.7c1.34,16.81,22.78,28.71,40.82,27.59,12.59-.79,21.77-7.81,26.75-12.73.88.9,1.79,1.76,2.7,2.58L67,322,51.76,373H232l-15.21-51-3.38-7.88c.91-.82,1.82-1.68,2.7-2.58,5,4.92,14.16,11.94,26.76,12.73,18,1.12,39.48-10.78,40.82-27.59C284.6,285.59,276.87,270.29,264.06,269.11Zm-55.55,86.55H75.28s-4.64-12.25,5.18-19.06c0,0,35.47,10.74,59.37-5.89.78-.37,1.46-.72,2.06-1.06.61.34,1.29.69,2.07,1.06,23.9,16.63,59.36,5.89,59.36,5.89C213.15,343.41,208.51,355.66,208.51,355.66Zm-68.68-32.51,2.06-6.41,2.07,6.41a20.57,20.57,0,0,0-2.07.33A20.64,20.64,0,0,0,139.83,323.15Zm75.86-40.06c-.85,12-6.31,21.89-9.95,28.42-10.8,14.46-47.12,6.35-47.12,6.35l-9.08-24.29h-15.3l-9.07,24.29S88.85,326,78.05,311.51c-3.65-6.53-9.1-16.42-10-28.42-1.52-21.48,12.42-40,24.94-56.69,18.4-24.47,30.74-28.14,30.24-41.2-.25-6.64-3.58-9.41-23.81-32.5-26.72-30.5-29.89-35.92-31-42.71-1.25-7.71-.36-20.53,14.26-38.39,0,0,11.92-12,23.21-11.31h0c9.22.56,16.4,1.07,18.87,1.25l4,18.07,1.84,10.73H149l1.84-10.73,4-18.07c3.22-.23,14.43-1,27.71-1.77,7.06,1.65,13.58,6.85,16.46,9.39,16.58,19.14,17.62,32.77,16.31,40.83-1.1,6.79-4.28,12.21-31,42.71-20.23,23.09-23.56,25.86-23.81,32.5-.5,13.06,11.84,16.73,30.23,41.2C203.26,243.06,217.2,261.61,215.69,283.09Z"/><path class="cls-2" d="M138.78,183.31c3.14.4,6.33-1,17.38-11.34a272.82,272.82,0,0,0,20-20.78c3.91-4.58,9-10.82,14.74-18.52a20.7,20.7,0,0,0-10.2-9.45c-10.74-4.4-20.68,3-21.17,3.4-10.61-6.33-17.33-6-21.54-4.54-6.55,2.34-6.28,7.35-15.49,11-4.82,1.9-8.27,1.85-14,5.3a37.48,37.48,0,0,0-6.05,4.53,186.7,186.7,0,0,1,25,29.86C130.72,177.66,133.68,182.67,138.78,183.31Z"/><path class="cls-2" d="M146.34,254c-13.71,3.28-25,5.24-32.89,6.42-16.11,2.43-22.85,2.38-28.72,8.32-7.27,7.35-7.19,17.79-7.18,19.65,0,2.3.11,14.6,9.45,21.55,8,5.95,20,5.88,30-.32l.21.42.31-.77c.43-.28.86-.55,1.28-.85l10.88-29.75,23.44.27,11,30,1.13-.48.45,1.13a28.25,28.25,0,0,0,18.52,2.27c12.34-2.89,17.79-13.68,18.9-15.88,7.08-14,.68-28.19-.76-31.37-1.73-3.83-7.54-16.69-21.54-20.79C168.91,240.33,155.68,244.4,146.34,254Z"/></g></g></svg>