<svg xmlns="http://www.w3.org/2000/svg" viewBox="0 0 343.76 306.55"><defs><style>.cls-1{fill:#959897;}</style></defs><g id="Calque_2" data-name="Calque 2"><g id="Calque_5" data-name="Calque 5"><path class="cls-1" d="M243.6,244.7c-2.83-12.53-5.9-26.12-16.63-37.79-11.06-12-26.23-17.66-39.42-19.55a17.87,17.87,0,0,1-.44-6.23,45.92,45.92,0,0,0,27.61-39.81c15.61-4.5,24.53-27.62,24.53-27.62L213,126.18a45.91,45.91,0,0,0-11.62-19.66c-8.31-8.31-58.74-7.32-67.16,2.38a45.77,45.77,0,0,0-9.7,18.31L96,113.7s9.87,25.61,27,28.17a45.93,45.93,0,0,0,30.32,40.35,12.54,12.54,0,0,1-1.45,5.91c-13.58,1.64-29.61,7.22-41.16,19.78C100,219.58,97,233.17,94.12,245.7a126.34,126.34,0,0,0-.76,51.4,295.79,295.79,0,0,0,151.19-.75c0-.27-.07-.54-.1-.81A126.21,126.21,0,0,0,243.6,244.7Z"/><path class="cls-1" d="M218.18,59.56c-15-6.24-46.49-13.89-64.91-4.25s-38,25.23-28.06,57c0,0,2.55-3.4,5.38-6.52,0,0,9.64-9.92,36-9.92s37.7,5.06,37.7,5.06,4.82,6,5.11,8.83c0,0,2.26-8.22,0-12.47,0,0-8.22-7.65-10.49-9.07,0,0,10.23,1.7,11.49,5.1,0,0,11.33,6.25,14.87,22.11l15.31-7.65,3.11-2.55s-2.26,21.54-8.22,25.79c0,0,13.33,20.13,2.56,42.81,0,0,15.87-23.53,17.29-51S233.21,65.8,218.18,59.56Z"/></g><g id="Calque_6" data-name="Calque 6"><path class="cls-1" d="M332,194c-2.83-12.53-5.9-26.11-16.63-37.79-11.06-12-26.22-17.66-39.41-19.55a17.58,17.58,0,0,1-.45-6.22A45.94,45.94,0,0,0,303.1,90.58C318.71,86.08,327.63,63,327.63,63L301.34,75.44a46,46,0,0,0-11.63-19.66c-7.24-7.24-46.43-7.42-62-.94,9.67,6.47,16.18,14.72,23.9,22.33,17.29,17,13.89,58.64,8.94,76.78S238,183.15,238,183.15s-13.61,2.55-6.24-7.09,1.07-31,1.07-31L222.56,148c-1.87,25.51-23.94,35.15-23.94,35.15,45.36,3.4,51.31,50.46,55,63.42A51,51,0,0,1,255,255.8c.66,0,1.32,0,2,0a295.89,295.89,0,0,0,76-10.2c0-.27-.07-.54-.1-.81A126.21,126.21,0,0,0,332,194Z"/><path class="cls-1" d="M306.56,8.82c-15-6.23-46.48-13.89-64.91-4.25C226.3,12.6,210.17,24.78,211,47a63.41,63.41,0,0,1,12.17,5.06c5.05-2.92,15.05-6.95,31.84-6.95,26.37,0,37.7,5.06,37.7,5.06s4.82,6,5.11,8.83c0,0,2.26-8.22,0-12.47,0,0-8.22-7.65-10.49-9.07,0,0,10.24,1.7,11.5,5.1,0,0,11.32,6.25,14.86,22.11L329,57l3.12-2.55S329.81,76,323.86,80.25c0,0,13.32,20.13,2.55,42.81,0,0,15.87-23.53,17.29-51S321.59,15.06,306.56,8.82Z"/><path class="cls-1" d="M115.53,146.37A74.71,74.71,0,0,0,96.47,141,17.83,17.83,0,0,1,96,134.8a47.61,47.61,0,0,0,4.88-2.49A56.49,56.49,0,0,1,94.31,110L117,116.57h0c0-.16-4.61-22.63,3.22-41.45a46.08,46.08,0,0,0-10-14.94c-8.31-8.31-58.73-7.32-67.15,2.38a45.84,45.84,0,0,0-9.7,18.31L4.93,67.36S14.8,93,32,95.54a46,46,0,0,0,30.32,40.35,12.39,12.39,0,0,1-1.45,5.9c-13.58,1.64-29.61,7.22-41.15,19.78C8.93,173.25,5.86,186.83,3,199.36a126.33,126.33,0,0,0-.76,51.4,295.42,295.42,0,0,0,75.21,9.45c2.53,0,5-.06,7.48-.13,6.28-69.08,46.61-77.21,46.61-77.21C117,171.58,115.55,146.58,115.53,146.37Z"/><path class="cls-1" d="M127.1,13.22C112.07,7,80.61-.67,62.18,9S24.2,34.2,34.12,66c0,0,2.55-3.41,5.39-6.52,0,0,9.64-9.93,36-9.93s37.7,5.06,37.7,5.06,4.82,6,5.1,8.83c0,0,2.27-8.22,0-12.47,0,0-8.22-7.65-10.49-9.07,0,0,10.24,1.7,11.5,5.1,0,0,6.93,3.83,11.65,13.1,8-7,18.43-11.18,26.32-13.59C149.44,30.35,136.58,17.16,127.1,13.22Z"/></g></g></svg>